<svg xmlns="http://www.w3.org/2000/svg" xmlns:xlink="http://www.w3.org/1999/xlink" width="201" zoomAndPan="magnify" viewBox="0 0 150.75 150.749998" height="201" preserveAspectRatio="xMidYMid meet" version="1.2"><defs><clipPath id="ecb5093e1a"><path d="M 36 33 L 137 33 L 137 146.203125 L 36 146.203125 Z M 36 33 "/></clipPath><clipPath id="7aa2aa7a4d"><path d="M 113 3.9375 L 130 3.9375 L 130 28 L 113 28 Z M 113 3.9375 "/></clipPath><clipPath id="a75b8a9b8d"><path d="M 123 25 L 149.75 25 L 149.75 40 L 123 40 Z M 123 25 "/></clipPath></defs><g id="bfd0c68d80"><g clip-rule="nonzero" clip-path="url(#ecb5093e1a)"><path style=" stroke:none;fill-rule:nonzero;fill:#ffffff;fill-opacity:1;" d="M 86.320312 96.039062 C 85.785156 96.039062 85.28125 96.101562 84.746094 96.117188 C 82.28125 85.773438 79.214844 77.128906 75.992188 70 C 81.976562 63.910156 102.417969 44.296875 120.019531 41.558594 L 118.824219 33.851562 C 100.386719 36.722656 80.566406 54.503906 72.363281 62.589844 C 64.378906 47.828125 56.628906 41.664062 56.117188 41.265625 L 51.332031 47.421875 C 51.503906 47.554688 68.113281 61.085938 76.929688 96.9375 C 53.460938 101.378906 36.265625 121.769531 36.265625 146.089844 L 44.0625 146.089844 C 44.0625 125.53125 58.683594 108.457031 78.554688 104.742188 C 79.078125 107.402344 79.542969 110.105469 79.949219 112.855469 C 64.179688 115.847656 52.328125 129.613281 52.328125 146.089844 L 60.125 146.089844 C 60.125 132.257812 70.914062 120.78125 84.925781 119.941406 C 85.269531 119.898438 85.617188 119.894531 85.964844 119.894531 C 100.269531 119.960938 112.4375 131.527344 112.4375 146.089844 L 120.234375 146.089844 C 120.234375 127.835938 105.769531 113.007812 87.742188 112.242188 C 87.335938 109.386719 86.835938 106.601562 86.300781 103.835938 C 86.304688 103.835938 86.3125 103.832031 86.320312 103.832031 C 109.578125 103.832031 128.5 122.789062 128.5 146.089844 L 136.292969 146.089844 C 136.292969 118.488281 113.875 96.039062 86.320312 96.039062 Z M 86.320312 96.039062 "/></g><path style=" stroke:none;fill-rule:nonzero;fill:#ffffff;fill-opacity:1;" d="M 87.175781 42.683594 C 94.929688 24.597656 76.398438 17.925781 76.398438 17.925781 C 68.097656 39.71875 87.175781 42.683594 87.175781 42.683594 Z M 87.175781 42.683594 "/><path style=" stroke:none;fill-rule:nonzero;fill:#ffffff;fill-opacity:1;" d="M 63.292969 4.996094 C 43.0625 16.597656 55.949219 30.980469 55.949219 30.980469 C 73.40625 21.898438 63.292969 4.996094 63.292969 4.996094 Z M 63.292969 4.996094 "/><path style=" stroke:none;fill-rule:nonzero;fill:#ffffff;fill-opacity:1;" d="M 49.507812 41.8125 C 50.511719 22.160156 30.816406 22.328125 30.816406 22.328125 C 30.582031 45.644531 49.507812 41.8125 49.507812 41.8125 Z M 49.507812 41.8125 "/><path style=" stroke:none;fill-rule:nonzero;fill:#ffffff;fill-opacity:1;" d="M 0.0664062 34.476562 C 13.160156 53.773438 26.527344 39.839844 26.527344 39.839844 C 16.152344 23.121094 0.0664062 34.476562 0.0664062 34.476562 Z M 0.0664062 34.476562 "/><path style=" stroke:none;fill-rule:nonzero;fill:#ffffff;fill-opacity:1;" d="M 45.871094 53.867188 C 30.757812 41.269531 19.066406 57.117188 19.066406 57.117188 C 37.574219 71.304688 45.871094 53.867188 45.871094 53.867188 Z M 45.871094 53.867188 "/><path style=" stroke:none;fill-rule:nonzero;fill:#ffffff;fill-opacity:1;" d="M 54.132812 66.046875 C 34.511719 64.550781 34.183594 84.246094 34.183594 84.246094 C 57.492188 85.0625 54.132812 66.046875 54.132812 66.046875 Z M 54.132812 66.046875 "/><path style=" stroke:none;fill-rule:nonzero;fill:#ffffff;fill-opacity:1;" d="M 99.984375 31.394531 C 115.226562 18.949219 101.886719 4.457031 101.886719 4.457031 C 84.441406 19.933594 99.984375 31.394531 99.984375 31.394531 Z M 99.984375 31.394531 "/><path style=" stroke:none;fill-rule:nonzero;fill:#ffffff;fill-opacity:1;" d="M 118.015625 75.492188 C 118.144531 52.171875 99.234375 56.085938 99.234375 56.085938 C 98.320312 75.742188 118.015625 75.492188 118.015625 75.492188 Z M 118.015625 75.492188 "/><g clip-rule="nonzero" clip-path="url(#7aa2aa7a4d)"><path style=" stroke:none;fill-rule:nonzero;fill:#ffffff;fill-opacity:1;" d="M 128.433594 3.9375 C 106.042969 10.457031 115.183594 27.46875 115.183594 27.46875 C 134.289062 22.742188 128.433594 3.9375 128.433594 3.9375 Z M 128.433594 3.9375 "/></g><path style=" stroke:none;fill-rule:nonzero;fill:#ffffff;fill-opacity:1;" d="M 113.792969 48.433594 C 120.164062 67.050781 138.386719 59.582031 138.386719 59.582031 C 129.9375 37.84375 113.792969 48.433594 113.792969 48.433594 Z M 113.792969 48.433594 "/><g clip-rule="nonzero" clip-path="url(#a75b8a9b8d)"><path style=" stroke:none;fill-rule:nonzero;fill:#ffffff;fill-opacity:1;" d="M 123.667969 35.515625 C 140.066406 46.394531 149.960938 29.367188 149.960938 29.367188 C 130.015625 17.28125 123.667969 35.515625 123.667969 35.515625 Z M 123.667969 35.515625 "/></g></g></svg>